<svg id="outputsvg" xmlns="http://www.w3.org/2000/svg" width="128" height="32" viewBox="160 0 1280 320" preserveAspectRatio="xMidYMid meet" title="HeroSpaceship.svg (20KB)" style="transform: matrix(8.157307210000004, 0, 0, 8.157307210000004, 295, 126); transform-origin: 50% 50%; cursor: move; display: inline;"><g id="layer101" fill="#2e2e2e" stroke="none">  <path d="M51 295 c0 -5 6 -21 13 -34 12 -21 11 -26 -5 -42 -22 -22 -26 -89 -6 -89 10 0 13 13 13 40 l-1 39 20 -19 c26 -25 32 -25 38 -2 4 13 5 11 6 -5 1 -17 -5 -23 -19 -23 -23 0 -25 -8 -7 -35 7 -11 19 -39 26 -62 7 -25 18 -43 26 -43 8 0 19 18 26 43 7 23 19 51 26 62 18 27 16 35 -7 35 -14 0 -20 6 -19 23 1 16 2 18 6 5 6 -23 12 -23 38 2 l20 19 -1 -39 c0 -27 3 -40 13 -40 20 0 16 67 -6 89 -16 16 -17 21 -5 42 19 35 16 48 -5 22 -13 -16 -21 -19 -29 -11 -8 8 -15 1 -25 -23 l-14 -34 -10 35 -9 35 -8 -35 -8 -35 -15 34 c-10 24 -17 31 -25 23 -8 -8 -16 -5 -29 11 -10 12 -18 18 -18 12z"></path>  <path d="M385 280 c4 -14 11 -29 15 -33 4 -5 -1 -18 -11 -28 -23 -23 -27 -89 -5 -89 7 0 13 8 13 18 0 9 1 26 2 37 2 19 2 19 16 1 7 -10 18 -15 24 -11 6 3 11 1 11 -4 0 -6 -7 -11 -16 -11 -12 0 -14 -5 -9 -17 21 -49 34 -90 35 -105 0 -10 7 -18 15 -18 8 0 15 8 15 18 1 15 14 56 35 105 5 12 3 17 -9 17 -9 0 -16 4 -16 10 0 5 6 7 13 4 8 -3 18 5 25 18 l11 23 2 -25 c1 -14 2 -33 2 -43 0 -9 6 -17 13 -17 22 0 18 66 -5 89 -10 10 -15 23 -11 28 4 4 11 19 15 33 l6 25 -19 -24 c-13 -16 -21 -20 -26 -12 -13 20 -25 12 -29 -21 l-4 -33 -1 33 c-2 37 -22 44 -22 8 0 -14 -4 -28 -10 -31 -6 -4 -10 7 -10 24 0 31 -13 41 -26 20 -5 -8 -13 -4 -26 12 l-19 24 6 -25z"></path>  <path d="M691 295 c0 -5 6 -21 13 -34 12 -21 11 -26 -5 -42 -23 -23 -26 -89 -5 -89 7 0 13 8 13 18 0 53 2 56 21 39 23 -21 29 -21 35 1 4 13 5 11 6 -5 1 -17 -5 -23 -19 -23 -23 0 -25 -8 -7 -35 7 -11 19 -39 26 -62 7 -25 18 -43 26 -43 8 0 19 18 26 43 7 23 19 51 26 62 18 27 16 35 -7 35 -14 0 -20 6 -19 23 1 16 2 18 6 5 6 -22 12 -22 35 -1 19 17 21 14 21 -40 0 -9 6 -17 13 -17 21 0 18 66 -5 89 -16 16 -17 21 -5 42 19 35 16 48 -5 22 -13 -16 -21 -19 -29 -11 -8 8 -15 1 -25 -23 l-14 -34 -10 35 -9 35 -8 -35 -8 -35 -15 34 c-10 24 -17 31 -25 23 -8 -8 -16 -5 -29 11 -10 12 -18 18 -18 12z"></path>  <path d="M1025 280 c4 -14 11 -29 15 -33 4 -5 -1 -18 -11 -28 -23 -23 -27 -89 -5 -89 7 0 13 8 13 18 0 9 1 28 2 42 l2 25 11 -23 c7 -13 17 -21 25 -18 7 3 13 1 13 -4 0 -6 -7 -10 -16 -10 -12 0 -14 -5 -9 -17 21 -49 34 -90 35 -105 0 -10 7 -18 15 -18 8 0 15 8 15 18 1 15 14 56 35 105 5 12 3 17 -9 17 -9 0 -16 5 -16 11 0 5 5 7 11 4 6 -4 17 1 24 11 14 18 14 18 16 -1 1 -11 2 -28 2 -38 0 -9 6 -17 13 -17 22 0 18 66 -5 89 -10 10 -15 23 -11 28 4 4 11 19 15 33 l6 25 -19 -24 c-13 -16 -21 -20 -26 -12 -13 21 -26 11 -26 -20 0 -17 -4 -28 -10 -24 -5 3 -10 17 -10 31 0 36 -18 29 -23 -8 l-4 -33 -1 33 c-2 32 -15 42 -28 21 -5 -8 -13 -4 -26 12 l-19 24 6 -25z"></path>  </g> <g id="layer102" fill="#1d0189" stroke="none">  <path d="M50 294 c1 -5 7 -20 15 -34 13 -24 14 -24 15 -4 0 12 -7 27 -15 34 -8 7 -15 9 -15 4z"></path>  <path d="M242 288 c-7 -7 -12 -21 -12 -32 1 -18 3 -17 16 7 17 31 15 44 -4 25z"></path>  <path d="M386 280 c8 -31 24 -50 24 -29 0 8 -7 24 -16 35 -14 18 -15 18 -8 -6z"></path>  <path d="M550 280 c-6 -11 -9 -26 -7 -33 3 -7 10 1 16 17 14 35 7 47 -9 16z"></path>  <path d="M690 294 c1 -5 7 -20 15 -34 13 -24 14 -24 15 -4 0 12 -7 27 -15 34 -8 7 -15 9 -15 4z"></path>  <path d="M882 288 c-7 -7 -12 -21 -12 -32 1 -18 3 -17 16 7 17 31 15 44 -4 25z"></path>  <path d="M1026 280 c8 -31 24 -50 24 -29 0 8 -7 24 -16 35 -14 18 -15 18 -8 -6z"></path>  <path d="M1190 280 c-6 -11 -9 -26 -7 -33 3 -7 10 1 16 17 14 35 7 47 -9 16z"></path>  <path d="M142 239 c-7 -21 -12 -48 -12 -59 0 -13 -7 -20 -20 -20 -23 0 -25 -8 -7 -35 7 -11 19 -39 26 -62 7 -25 18 -43 26 -43 8 0 19 18 26 42 7 24 19 52 26 63 18 27 16 35 -7 35 -14 0 -20 7 -20 23 0 12 -6 38 -13 59 l-13 36 -12 -39z"></path>  <path d="M470 257 c0 -31 -10 -40 -27 -25 -24 19 -39 -6 -24 -39 13 -26 14 -27 22 -8 7 19 8 19 8 -2 1 -15 -5 -23 -15 -23 -12 0 -14 -5 -9 -17 21 -49 34 -90 35 -105 0 -10 7 -18 15 -18 8 0 15 8 15 18 1 15 14 56 35 105 5 12 3 17 -9 17 -9 0 -16 7 -16 16 0 8 4 13 9 10 12 -8 22 20 15 39 -5 12 -10 13 -20 4 -11 -9 -14 -6 -14 20 0 17 -4 31 -10 31 -5 0 -10 -10 -10 -23z"></path>  <path d="M782 239 c-7 -21 -12 -48 -12 -59 0 -13 -7 -20 -20 -20 -23 0 -25 -8 -7 -35 7 -11 19 -39 26 -62 15 -55 37 -55 52 -1 7 24 19 52 26 63 18 27 16 35 -7 35 -14 0 -20 7 -20 23 0 12 -6 38 -13 59 l-13 36 -12 -39z"></path>  <path d="M1100 249 c0 -26 -3 -29 -14 -20 -10 9 -15 8 -20 -4 -7 -19 3 -47 15 -39 5 3 9 -2 9 -10 0 -9 -7 -16 -16 -16 -12 0 -14 -5 -9 -17 21 -49 34 -90 35 -105 0 -10 7 -18 15 -18 8 0 15 8 15 18 1 15 14 56 35 105 5 12 3 17 -9 17 -10 0 -16 8 -15 23 0 21 1 21 8 2 8 -19 9 -18 22 8 15 33 0 58 -24 39 -17 -15 -27 -6 -27 25 0 13 -4 23 -10 23 -5 0 -10 -14 -10 -31z"></path>  <path d="M91 229 c-9 -16 -9 -24 0 -35 15 -18 29 -9 29 21 0 32 -13 38 -29 14z"></path>  <path d="M197 243 c-10 -9 -8 -51 2 -57 5 -3 14 1 21 9 9 11 9 19 -3 35 -7 11 -17 17 -20 13z"></path>  <path d="M731 229 c-9 -16 -9 -24 0 -35 15 -18 29 -9 29 21 0 32 -13 38 -29 14z"></path>  <path d="M837 243 c-10 -9 -8 -51 2 -57 5 -3 14 1 21 9 9 11 9 19 -3 35 -7 11 -17 17 -20 13z"></path>  <path d="M46 185 c-3 -8 -1 -15 4 -15 6 0 10 7 10 15 0 8 -2 15 -4 15 -2 0 -6 -7 -10 -15z"></path>  <path d="M250 185 c0 -8 4 -15 10 -15 5 0 7 7 4 15 -4 8 -8 15 -10 15 -2 0 -4 -7 -4 -15z"></path>  <path d="M376 185 c-3 -8 -1 -15 4 -15 6 0 10 7 10 15 0 8 -2 15 -4 15 -2 0 -6 -7 -10 -15z"></path>  <path d="M560 185 c0 -8 4 -15 10 -15 5 0 7 7 4 15 -4 8 -8 15 -10 15 -2 0 -4 -7 -4 -15z"></path>  <path d="M686 185 c-3 -8 -1 -15 4 -15 6 0 10 7 10 15 0 8 -2 15 -4 15 -2 0 -6 -7 -10 -15z"></path>  <path d="M890 185 c0 -8 4 -15 10 -15 5 0 7 7 4 15 -4 8 -8 15 -10 15 -2 0 -4 -7 -4 -15z"></path>  <path d="M1016 185 c-3 -8 -1 -15 4 -15 6 0 10 7 10 15 0 8 -2 15 -4 15 -2 0 -6 -7 -10 -15z"></path>  <path d="M1200 185 c0 -8 4 -15 10 -15 5 0 7 7 4 15 -4 8 -8 15 -10 15 -2 0 -4 -7 -4 -15z"></path>  <path d="M40 151 c0 -6 5 -13 10 -16 6 -3 10 1 10 9 0 9 -4 16 -10 16 -5 0 -10 -4 -10 -9z"></path>  <path d="M250 144 c0 -8 5 -12 10 -9 6 3 10 10 10 16 0 5 -4 9 -10 9 -5 0 -10 -7 -10 -16z"></path>  <path d="M370 151 c0 -6 5 -13 10 -16 6 -3 10 1 10 9 0 9 -4 16 -10 16 -5 0 -10 -4 -10 -9z"></path>  <path d="M560 144 c0 -8 5 -12 10 -9 6 4 8 11 5 16 -9 14 -15 11 -15 -7z"></path>  <path d="M680 151 c0 -6 5 -13 10 -16 6 -3 10 1 10 9 0 9 -4 16 -10 16 -5 0 -10 -4 -10 -9z"></path>  <path d="M890 144 c0 -8 5 -12 10 -9 6 3 10 10 10 16 0 5 -4 9 -10 9 -5 0 -10 -7 -10 -16z"></path>  <path d="M1015 151 c-3 -5 -1 -12 5 -16 5 -3 10 1 10 9 0 18 -6 21 -15 7z"></path>  <path d="M1200 144 c0 -8 5 -12 10 -9 6 3 10 10 10 16 0 5 -4 9 -10 9 -5 0 -10 -7 -10 -16z"></path>  </g> <g id="layer103" fill="#003ecc" stroke="none">  <path d="M380 294 c1 -16 29 -60 29 -44 0 8 -6 24 -14 34 -8 11 -15 16 -15 10z"></path>  <path d="M1192 280 c-7 -11 -12 -25 -12 -32 1 -7 8 0 16 15 18 33 14 46 -4 17z"></path>  <path d="M546 275 c-9 -26 -7 -32 5 -12 6 10 9 21 6 23 -2 3 -7 -2 -11 -11z"></path>  <path d="M1030 285 c0 -5 5 -17 10 -25 5 -8 10 -10 10 -5 0 6 -5 17 -10 25 -5 8 -10 11 -10 5z"></path>  <path d="M60 273 c0 -4 5 -15 10 -23 8 -13 10 -13 10 2 0 9 -4 20 -10 23 -5 3 -10 3 -10 -2z"></path>  <path d="M151 258 c0 -15 -6 -30 -11 -33 -7 -4 -7 -13 0 -24 6 -12 5 -22 -1 -28 -8 -8 -7 -18 0 -34 l12 -24 -17 22 c-9 13 -20 23 -25 23 -15 0 -10 -30 6 -36 8 -4 13 -10 10 -14 -2 -4 2 -27 9 -51 8 -26 15 -36 16 -24 1 20 2 20 9 1 6 -16 10 -11 19 24 6 24 9 47 6 51 -2 4 3 9 11 13 16 6 21 36 6 36 -5 0 -16 -10 -25 -22 l-17 -23 11 23 c8 16 8 27 1 35 -6 8 -6 18 -1 27 5 8 5 19 0 25 -4 5 -10 21 -13 35 l-4 25 -2 -27z m6 -195 c-4 -3 -7 0 -7 7 0 7 3 10 7 7 3 -4 3 -10 0 -14z"></path>  <path d="M237 273 c-4 -3 -7 -13 -7 -22 1 -13 3 -13 11 2 11 19 8 33 -4 20z"></path>  <path d="M469 238 c-6 -24 -12 -56 -12 -73 0 -16 -2 -24 -4 -17 -5 12 -33 18 -33 6 0 -3 5 -15 12 -27 6 -12 17 -42 24 -67 11 -42 12 -43 13 -13 1 24 5 31 16 27 10 -4 15 0 15 14 0 24 -16 38 -23 20 -4 -8 -6 -7 -6 3 -1 9 6 20 15 23 8 3 12 2 9 -4 -9 -15 4 -12 21 4 14 15 3 33 -14 22 -4 -2 -13 4 -20 15 -7 10 -8 19 -4 19 5 0 9 20 11 45 3 57 -5 57 -20 3z"></path>  <path d="M700 273 c0 -4 5 -15 10 -23 8 -13 10 -13 10 2 0 9 -4 20 -10 23 -5 3 -10 3 -10 -2z"></path>  <path d="M791 258 c0 -15 -6 -30 -11 -33 -7 -4 -7 -13 0 -24 6 -12 5 -22 -1 -28 -8 -8 -7 -18 0 -34 l12 -24 -17 22 c-9 13 -20 23 -25 23 -15 0 -10 -30 6 -36 8 -4 13 -10 10 -14 -2 -4 2 -27 9 -51 8 -26 15 -36 16 -24 1 20 2 20 9 1 6 -16 10 -11 19 24 6 24 9 47 6 51 -2 4 3 9 11 13 16 6 21 36 6 36 -5 0 -16 -10 -25 -22 l-17 -23 11 23 c8 16 8 27 1 35 -6 8 -6 18 -1 27 5 8 5 19 0 25 -4 5 -10 21 -13 35 l-4 25 -2 -27z m6 -195 c-4 -3 -7 0 -7 7 0 7 3 10 7 7 3 -4 3 -10 0 -14z"></path>  <path d="M877 273 c-4 -3 -7 -13 -7 -22 1 -13 3 -13 11 2 11 19 8 33 -4 20z"></path>  <path d="M1101 237 c2 -26 6 -47 11 -47 4 0 3 -9 -4 -19 -7 -11 -16 -17 -20 -15 -17 11 -28 -7 -14 -22 17 -16 30 -19 21 -4 -3 6 1 7 9 4 9 -3 16 -14 15 -23 0 -10 -2 -11 -6 -3 -7 18 -23 4 -23 -20 0 -14 5 -18 15 -14 11 4 15 -3 16 -27 1 -30 2 -29 13 13 7 25 18 55 24 67 7 12 12 24 12 27 0 9 -28 7 -33 -1 -2 -5 -3 -3 -1 4 3 13 -22 112 -31 121 -3 4 -5 -15 -4 -41z"></path>  <path d="M91 229 c-9 -16 -9 -24 0 -35 15 -18 29 -9 29 21 0 32 -13 38 -29 14z"></path>  <path d="M197 243 c-10 -9 -8 -51 2 -57 5 -3 14 1 21 9 9 11 9 19 -3 35 -7 11 -17 17 -20 13z"></path>  <path d="M731 229 c-9 -16 -9 -24 0 -35 15 -18 29 -9 29 21 0 32 -13 38 -29 14z"></path>  <path d="M837 243 c-10 -9 -8 -51 2 -57 5 -3 14 1 21 9 9 11 9 19 -3 35 -7 11 -17 17 -20 13z"></path>  <path d="M414 226 c-3 -8 0 -25 7 -37 l12 -23 9 24 c10 26 4 50 -12 50 -6 0 -13 -6 -16 -14z"></path>  <path d="M505 228 c-4 -10 -4 -26 0 -35 6 -17 7 -17 16 0 7 11 7 23 0 35 -9 16 -10 16 -16 0z"></path>  <path d="M1066 225 c-7 -19 3 -47 15 -39 5 3 9 14 9 24 0 24 -16 34 -24 15z"></path>  <path d="M1144 227 c-2 -7 -1 -24 4 -37 l9 -24 12 23 c13 24 9 51 -9 51 -6 0 -13 -6 -16 -13z"></path>  <path d="M46 185 c-3 -8 -1 -15 4 -15 6 0 10 7 10 15 0 8 -2 15 -4 15 -2 0 -6 -7 -10 -15z"></path>  <path d="M250 185 c0 -8 4 -15 10 -15 5 0 7 7 4 15 -4 8 -8 15 -10 15 -2 0 -4 -7 -4 -15z"></path>  <path d="M376 185 c-3 -8 -1 -15 4 -15 6 0 10 7 10 15 0 8 -2 15 -4 15 -2 0 -6 -7 -10 -15z"></path>  <path d="M560 185 c0 -8 4 -15 10 -15 5 0 7 7 4 15 -4 8 -8 15 -10 15 -2 0 -4 -7 -4 -15z"></path>  <path d="M686 185 c-3 -8 -1 -15 4 -15 6 0 10 7 10 15 0 8 -2 15 -4 15 -2 0 -6 -7 -10 -15z"></path>  <path d="M890 185 c0 -8 4 -15 10 -15 5 0 7 7 4 15 -4 8 -8 15 -10 15 -2 0 -4 -7 -4 -15z"></path>  <path d="M1016 185 c-3 -8 -1 -15 4 -15 6 0 10 7 10 15 0 8 -2 15 -4 15 -2 0 -6 -7 -10 -15z"></path>  <path d="M1200 185 c0 -8 4 -15 10 -15 5 0 7 7 4 15 -4 8 -8 15 -10 15 -2 0 -4 -7 -4 -15z"></path>  <path d="M40 151 c0 -6 5 -13 10 -16 6 -3 10 1 10 9 0 9 -4 16 -10 16 -5 0 -10 -4 -10 -9z"></path>  <path d="M250 144 c0 -8 5 -12 10 -9 6 3 10 10 10 16 0 5 -4 9 -10 9 -5 0 -10 -7 -10 -16z"></path>  <path d="M370 151 c0 -6 5 -13 10 -16 6 -3 10 1 10 9 0 9 -4 16 -10 16 -5 0 -10 -4 -10 -9z"></path>  <path d="M560 144 c0 -8 5 -12 10 -9 6 4 8 11 5 16 -9 14 -15 11 -15 -7z"></path>  <path d="M680 151 c0 -6 5 -13 10 -16 6 -3 10 1 10 9 0 9 -4 16 -10 16 -5 0 -10 -4 -10 -9z"></path>  <path d="M890 144 c0 -8 5 -12 10 -9 6 3 10 10 10 16 0 5 -4 9 -10 9 -5 0 -10 -7 -10 -16z"></path>  <path d="M1015 151 c-3 -5 -1 -12 5 -16 5 -3 10 1 10 9 0 18 -6 21 -15 7z"></path>  <path d="M1200 144 c0 -8 5 -12 10 -9 6 3 10 10 10 16 0 5 -4 9 -10 9 -5 0 -10 -7 -10 -16z"></path>  <path d="M481 44 c0 -11 3 -14 6 -6 3 7 2 16 -1 19 -3 4 -6 -2 -5 -13z"></path>  <path d="M1101 44 c0 -11 3 -14 6 -6 3 7 2 16 -1 19 -3 4 -6 -2 -5 -13z"></path>  </g> <g id="layer104" fill="#6b6b6b" stroke="none">  <path d="M390 271 c0 -5 5 -13 10 -16 6 -3 10 -2 10 4 0 5 -4 13 -10 16 -5 3 -10 2 -10 -4z"></path>  <path d="M1187 273 c-4 -3 -7 -11 -7 -17 0 -6 5 -5 12 2 6 6 9 14 7 17 -3 3 -9 2 -12 -2z"></path>  <path d="M65 260 c3 -5 8 -10 11 -10 3 0 2 5 -1 10 -3 6 -8 10 -11 10 -3 0 -2 -4 1 -10z"></path>  <path d="M234 258 c-4 -7 -3 -8 4 -4 7 4 12 9 12 12 0 8 -9 4 -16 -8z"></path>  <path d="M705 260 c3 -5 8 -10 11 -10 3 0 2 5 -1 10 -3 6 -8 10 -11 10 -3 0 -2 -4 1 -10z"></path>  <path d="M874 258 c-4 -7 -3 -8 4 -4 7 4 12 9 12 12 0 8 -9 4 -16 -8z"></path>  <path d="M152 235 c0 -16 2 -22 5 -12 2 9 2 23 0 30 -3 6 -5 -1 -5 -18z"></path>  <path d="M477 247 c-11 -29 -9 -43 4 -30 6 6 9 19 7 29 -3 18 -4 18 -11 1z"></path>  <path d="M792 235 c0 -16 2 -22 5 -12 2 9 2 23 0 30 -3 6 -5 -1 -5 -18z"></path>  <path d="M1100 243 c0 -12 5 -25 10 -28 13 -8 13 15 0 35 -8 12 -10 11 -10 -7z"></path>  <path d="M91 229 c-9 -16 -9 -24 0 -35 15 -18 29 -9 29 21 0 32 -13 38 -29 14z"></path>  <path d="M197 243 c-10 -9 -8 -51 2 -57 5 -3 14 1 21 9 9 11 9 19 -3 35 -7 11 -17 17 -20 13z"></path>  <path d="M731 229 c-9 -16 -9 -24 0 -35 15 -18 29 -9 29 21 0 32 -13 38 -29 14z"></path>  <path d="M837 243 c-10 -9 -8 -51 2 -57 5 -3 14 1 21 9 9 11 9 19 -3 35 -7 11 -17 17 -20 13z"></path>  <path d="M414 226 c-3 -8 0 -25 7 -37 l12 -23 9 24 c10 26 4 50 -12 50 -6 0 -13 -6 -16 -14z"></path>  <path d="M505 228 c-4 -10 -4 -26 0 -35 6 -17 7 -17 16 0 7 11 7 23 0 35 -9 16 -10 16 -16 0z"></path>  <path d="M1066 225 c-7 -19 3 -47 15 -39 5 3 9 14 9 24 0 24 -16 34 -24 15z"></path>  <path d="M1144 227 c-2 -7 -1 -24 4 -37 l9 -24 12 23 c13 24 9 51 -9 51 -6 0 -13 -6 -16 -13z"></path>  <path d="M46 185 c-3 -8 -1 -15 4 -15 6 0 10 7 10 15 0 8 -2 15 -4 15 -2 0 -6 -7 -10 -15z"></path>  <path d="M250 185 c0 -8 4 -15 10 -15 5 0 7 7 4 15 -4 8 -8 15 -10 15 -2 0 -4 -7 -4 -15z"></path>  <path d="M376 185 c-3 -8 -1 -15 4 -15 6 0 10 7 10 15 0 8 -2 15 -4 15 -2 0 -6 -7 -10 -15z"></path>  <path d="M463 193 c4 -3 10 -3 14 0 3 4 0 7 -7 7 -7 0 -10 -3 -7 -7z"></path>  <path d="M560 185 c0 -8 4 -15 10 -15 5 0 7 7 4 15 -4 8 -8 15 -10 15 -2 0 -4 -7 -4 -15z"></path>  <path d="M686 185 c-3 -8 -1 -15 4 -15 6 0 10 7 10 15 0 8 -2 15 -4 15 -2 0 -6 -7 -10 -15z"></path>  <path d="M890 185 c0 -8 4 -15 10 -15 5 0 7 7 4 15 -4 8 -8 15 -10 15 -2 0 -4 -7 -4 -15z"></path>  <path d="M1016 185 c-3 -8 -1 -15 4 -15 6 0 10 7 10 15 0 8 -2 15 -4 15 -2 0 -6 -7 -10 -15z"></path>  <path d="M1113 193 c4 -3 10 -3 14 0 3 4 0 7 -7 7 -7 0 -10 -3 -7 -7z"></path>  <path d="M1200 185 c0 -8 4 -15 10 -15 5 0 7 7 4 15 -4 8 -8 15 -10 15 -2 0 -4 -7 -4 -15z"></path>  <path d="M146 165 c-8 -22 3 -40 16 -27 7 7 7 16 1 27 -9 16 -10 16 -17 0z"></path>  <path d="M465 167 c-4 -10 -3 -23 3 -29 14 -14 21 3 12 27 -7 19 -8 19 -15 2z"></path>  <path d="M786 165 c-8 -22 3 -40 16 -27 7 7 7 16 1 27 -9 16 -10 16 -17 0z"></path>  <path d="M1107 161 c-3 -12 -1 -24 4 -27 13 -8 24 25 12 37 -7 7 -12 3 -16 -10z"></path>  <path d="M40 151 c0 -6 5 -13 10 -16 6 -3 10 1 10 9 0 9 -4 16 -10 16 -5 0 -10 -4 -10 -9z"></path>  <path d="M250 144 c0 -8 5 -12 10 -9 6 3 10 10 10 16 0 5 -4 9 -10 9 -5 0 -10 -7 -10 -16z"></path>  <path d="M370 151 c0 -6 5 -13 10 -16 6 -3 10 1 10 9 0 9 -4 16 -10 16 -5 0 -10 -4 -10 -9z"></path>  <path d="M430 153 c0 -6 7 -18 15 -26 8 -8 12 -17 9 -20 -3 -3 -1 -14 5 -24 9 -16 10 -15 11 8 0 15 -9 37 -20 50 -10 13 -19 19 -20 12z"></path>  <path d="M560 144 c0 -8 5 -12 10 -9 6 4 8 11 5 16 -9 14 -15 11 -15 -7z"></path>  <path d="M680 151 c0 -6 5 -13 10 -16 6 -3 10 1 10 9 0 9 -4 16 -10 16 -5 0 -10 -4 -10 -9z"></path>  <path d="M890 144 c0 -8 5 -12 10 -9 6 3 10 10 10 16 0 5 -4 9 -10 9 -5 0 -10 -7 -10 -16z"></path>  <path d="M1015 151 c-3 -5 -1 -12 5 -16 5 -3 10 1 10 9 0 18 -6 21 -15 7z"></path>  <path d="M1136 138 c-9 -12 -16 -34 -16 -48 1 -22 2 -23 11 -7 5 9 7 22 4 27 -3 6 -2 10 3 10 11 0 25 30 18 37 -2 2 -11 -6 -20 -19z"></path>  <path d="M1200 144 c0 -8 5 -12 10 -9 6 3 10 10 10 16 0 5 -4 9 -10 9 -5 0 -10 -7 -10 -16z"></path>  <path d="M110 141 c0 -6 7 -14 15 -17 8 -4 13 -9 11 -13 -2 -3 0 -15 5 -26 7 -18 8 -17 8 6 1 14 -8 34 -19 44 -12 11 -20 13 -20 6z"></path>  <path d="M177 132 c-10 -10 -17 -29 -17 -42 0 -27 7 -24 12 5 1 11 10 25 18 32 8 6 12 14 9 17 -3 3 -13 -2 -22 -12z"></path>  <path d="M496 133 c-6 -14 -5 -15 5 -6 7 7 10 15 7 18 -3 3 -9 -2 -12 -12z"></path>  <path d="M750 141 c0 -6 7 -14 15 -17 8 -4 13 -9 11 -13 -2 -3 0 -15 5 -26 7 -18 8 -17 8 6 1 14 -8 34 -19 44 -12 11 -20 13 -20 6z"></path>  <path d="M817 132 c-10 -10 -17 -29 -17 -42 0 -27 7 -24 12 5 1 11 10 25 18 32 8 6 12 14 9 17 -3 3 -13 -2 -22 -12z"></path>  <path d="M1080 141 c0 -6 4 -13 10 -16 6 -3 7 1 4 9 -7 18 -14 21 -14 7z"></path>  <path d="M481 94 c0 -11 3 -14 6 -6 3 7 2 16 -1 19 -3 4 -6 -2 -5 -13z"></path>  <path d="M1101 94 c0 -11 3 -14 6 -6 3 7 2 16 -1 19 -3 4 -6 -2 -5 -13z"></path>  <path d="M140 50 c0 -7 3 -10 7 -7 3 4 3 10 0 14 -4 3 -7 0 -7 -7z"></path>  <path d="M160 50 c0 -7 3 -10 7 -7 3 4 3 10 0 14 -4 3 -7 0 -7 -7z"></path>  <path d="M460 50 c0 -7 3 -10 7 -7 3 4 3 10 0 14 -4 3 -7 0 -7 -7z"></path>  <path d="M780 50 c0 -7 3 -10 7 -7 3 4 3 10 0 14 -4 3 -7 0 -7 -7z"></path>  <path d="M800 50 c0 -7 3 -10 7 -7 3 4 3 10 0 14 -4 3 -7 0 -7 -7z"></path>  <path d="M1120 50 c0 -7 3 -10 7 -7 3 4 3 10 0 14 -4 3 -7 0 -7 -7z"></path>  </g> <g id="layer105" fill="#739cff" stroke="none">  <path d="M390 271 c0 -5 5 -13 10 -16 6 -3 10 -2 10 4 0 5 -4 13 -10 16 -5 3 -10 2 -10 -4z"></path>  <path d="M1187 273 c-4 -3 -7 -11 -7 -17 0 -6 5 -5 12 2 6 6 9 14 7 17 -3 3 -9 2 -12 -2z"></path>  <path d="M65 260 c3 -5 8 -10 11 -10 3 0 2 5 -1 10 -3 6 -8 10 -11 10 -3 0 -2 -4 1 -10z"></path>  <path d="M234 258 c-4 -7 -3 -8 4 -4 7 4 12 9 12 12 0 8 -9 4 -16 -8z"></path>  <path d="M705 260 c3 -5 8 -10 11 -10 3 0 2 5 -1 10 -3 6 -8 10 -11 10 -3 0 -2 -4 1 -10z"></path>  <path d="M874 258 c-4 -7 -3 -8 4 -4 7 4 12 9 12 12 0 8 -9 4 -16 -8z"></path>  <path d="M152 235 c0 -16 2 -22 5 -12 2 9 2 23 0 30 -3 6 -5 -1 -5 -18z"></path>  <path d="M477 247 c-11 -29 -9 -43 4 -30 6 6 9 19 7 29 -3 18 -4 18 -11 1z"></path>  <path d="M792 235 c0 -16 2 -22 5 -12 2 9 2 23 0 30 -3 6 -5 -1 -5 -18z"></path>  <path d="M1100 243 c0 -12 5 -25 10 -28 13 -8 13 15 0 35 -8 12 -10 11 -10 -7z"></path>  <path d="M97 221 c-2 -10 -1 -25 4 -32 6 -10 9 -4 9 19 0 36 -5 42 -13 13z"></path>  <path d="M200 208 c0 -23 3 -29 9 -19 8 12 4 51 -5 51 -2 0 -4 -15 -4 -32z"></path>  <path d="M420 225 c-11 -13 -11 -18 2 -31 14 -14 16 -14 20 4 8 30 -6 47 -22 27z"></path>  <path d="M737 221 c-2 -10 -1 -25 4 -32 6 -10 9 -4 9 19 0 36 -5 42 -13 13z"></path>  <path d="M840 208 c0 -23 3 -29 9 -19 8 12 4 51 -5 51 -2 0 -4 -15 -4 -32z"></path>  <path d="M1148 228 c-3 -7 -2 -21 1 -31 6 -18 8 -18 21 -2 11 14 11 18 -2 31 -12 13 -16 13 -20 2z"></path>  <path d="M504 219 c-3 -6 -1 -16 5 -22 8 -8 11 -5 11 11 0 24 -5 28 -16 11z"></path>  <path d="M1070 210 c0 -19 3 -21 12 -12 9 9 9 15 0 24 -9 9 -12 7 -12 -12z"></path>  <path d="M463 193 c4 -3 10 -3 14 0 3 4 0 7 -7 7 -7 0 -10 -3 -7 -7z"></path>  <path d="M1113 193 c4 -3 10 -3 14 0 3 4 0 7 -7 7 -7 0 -10 -3 -7 -7z"></path>  <path d="M375 180 c-3 -5 -1 -10 4 -10 6 0 11 5 11 10 0 6 -2 10 -4 10 -3 0 -8 -4 -11 -10z"></path>  <path d="M1200 180 c0 -5 5 -10 11 -10 5 0 7 5 4 10 -3 6 -8 10 -11 10 -2 0 -4 -4 -4 -10z"></path>  <path d="M146 165 c-8 -22 3 -40 16 -27 7 7 7 16 1 27 -9 16 -10 16 -17 0z"></path>  <path d="M465 167 c-4 -10 -3 -23 3 -29 14 -14 21 3 12 27 -7 19 -8 19 -15 2z"></path>  <path d="M786 165 c-8 -22 3 -40 16 -27 7 7 7 16 1 27 -9 16 -10 16 -17 0z"></path>  <path d="M1107 161 c-3 -12 -1 -24 4 -27 13 -8 24 25 12 37 -7 7 -12 3 -16 -10z"></path>  <path d="M370 150 c0 -5 5 -10 11 -10 5 0 7 5 4 10 -3 6 -8 10 -11 10 -2 0 -4 -4 -4 -10z"></path>  <path d="M430 153 c0 -6 7 -18 15 -26 8 -8 12 -17 9 -20 -3 -3 -1 -14 5 -24 9 -16 10 -15 11 8 0 15 -9 37 -20 50 -10 13 -19 19 -20 12z"></path>  <path d="M1136 138 c-9 -12 -16 -34 -16 -48 1 -22 2 -23 11 -7 5 9 7 22 4 27 -3 6 -2 10 3 10 11 0 25 30 18 37 -2 2 -11 -6 -20 -19z"></path>  <path d="M1205 150 c-3 -5 -1 -10 4 -10 6 0 11 5 11 10 0 6 -2 10 -4 10 -3 0 -8 -4 -11 -10z"></path>  <path d="M110 141 c0 -6 7 -14 15 -17 8 -4 13 -9 11 -13 -2 -3 0 -15 5 -26 7 -18 8 -17 8 6 1 14 -8 34 -19 44 -12 11 -20 13 -20 6z"></path>  <path d="M177 132 c-10 -10 -17 -29 -17 -42 0 -27 7 -24 12 5 1 11 10 25 18 32 8 6 12 14 9 17 -3 3 -13 -2 -22 -12z"></path>  <path d="M496 133 c-6 -14 -5 -15 5 -6 7 7 10 15 7 18 -3 3 -9 -2 -12 -12z"></path>  <path d="M750 141 c0 -6 7 -14 15 -17 8 -4 13 -9 11 -13 -2 -3 0 -15 5 -26 7 -18 8 -17 8 6 1 14 -8 34 -19 44 -12 11 -20 13 -20 6z"></path>  <path d="M817 132 c-10 -10 -17 -29 -17 -42 0 -27 7 -24 12 5 1 11 10 25 18 32 8 6 12 14 9 17 -3 3 -13 -2 -22 -12z"></path>  <path d="M1080 141 c0 -6 4 -13 10 -16 6 -3 7 1 4 9 -7 18 -14 21 -14 7z"></path>  <path d="M481 94 c0 -11 3 -14 6 -6 3 7 2 16 -1 19 -3 4 -6 -2 -5 -13z"></path>  <path d="M1101 94 c0 -11 3 -14 6 -6 3 7 2 16 -1 19 -3 4 -6 -2 -5 -13z"></path>  <path d="M140 50 c0 -7 3 -10 7 -7 3 4 3 10 0 14 -4 3 -7 0 -7 -7z"></path>  <path d="M160 50 c0 -7 3 -10 7 -7 3 4 3 10 0 14 -4 3 -7 0 -7 -7z"></path>  <path d="M460 50 c0 -7 3 -10 7 -7 3 4 3 10 0 14 -4 3 -7 0 -7 -7z"></path>  <path d="M780 50 c0 -7 3 -10 7 -7 3 4 3 10 0 14 -4 3 -7 0 -7 -7z"></path>  <path d="M800 50 c0 -7 3 -10 7 -7 3 4 3 10 0 14 -4 3 -7 0 -7 -7z"></path>  <path d="M1120 50 c0 -7 3 -10 7 -7 3 4 3 10 0 14 -4 3 -7 0 -7 -7z"></path>  </g> <g id="layer106" fill="#eafaff" stroke="none">  <path d="M100 210 c0 -7 3 -10 7 -7 3 4 3 10 0 14 -4 3 -7 0 -7 -7z"></path>  <path d="M200 210 c0 -7 3 -10 7 -7 3 4 3 10 0 14 -4 3 -7 0 -7 -7z"></path>  <path d="M420 210 c0 -5 5 -10 10 -10 6 0 10 5 10 10 0 6 -4 10 -10 10 -5 0 -10 -4 -10 -10z"></path>  <path d="M740 210 c0 -7 3 -10 7 -7 3 4 3 10 0 14 -4 3 -7 0 -7 -7z"></path>  <path d="M840 210 c0 -7 3 -10 7 -7 3 4 3 10 0 14 -4 3 -7 0 -7 -7z"></path>  <path d="M1150 210 c0 -5 5 -10 10 -10 6 0 10 5 10 10 0 6 -4 10 -10 10 -5 0 -10 -4 -10 -10z"></path>  <path d="M151 154 c0 -11 3 -14 6 -6 3 7 2 16 -1 19 -3 4 -6 -2 -5 -13z"></path>  <path d="M471 154 c0 -11 3 -14 6 -6 3 7 2 16 -1 19 -3 4 -6 -2 -5 -13z"></path>  <path d="M791 154 c0 -11 3 -14 6 -6 3 7 2 16 -1 19 -3 4 -6 -2 -5 -13z"></path>  <path d="M1111 154 c0 -11 3 -14 6 -6 3 7 2 16 -1 19 -3 4 -6 -2 -5 -13z"></path>  <path d="M445 130 c3 -5 8 -10 11 -10 3 0 2 5 -1 10 -3 6 -8 10 -11 10 -3 0 -2 -4 1 -10z"></path>  <path d="M1134 128 c-4 -7 -3 -8 4 -4 7 4 12 9 12 12 0 8 -9 4 -16 -8z"></path>  <path d="M460 100 c0 -7 3 -10 7 -7 3 4 3 10 0 14 -4 3 -7 0 -7 -7z"></path>  <path d="M1120 100 c0 -7 3 -10 7 -7 3 4 3 10 0 14 -4 3 -7 0 -7 -7z"></path>  </g> </svg>